<?xml version="1.0" standalone="no"?>
<!DOCTYPE svg PUBLIC "-//W3C//DTD SVG 20010904//EN"
 "http://www.w3.org/TR/2001/REC-SVG-20010904/DTD/svg10.dtd">
<svg version="1.0" xmlns="http://www.w3.org/2000/svg"
 width="1250.000000pt" height="1250.000000pt" viewBox="0 0 1250.000000 1250.000000"
 preserveAspectRatio="xMidYMid meet">

<g transform="translate(0.000000,1250.000000) scale(0.100000,-0.100000)"
fill="#000000" stroke="none">
<path d="M5690 11679 c-92 -10 -138 -24 -193 -59 -60 -38 -98 -98 -138 -219
-17 -53 -41 -118 -52 -146 -30 -74 -105 -183 -136 -200 -15 -7 -74 -19 -132
-25 -187 -20 -270 -58 -334 -152 -81 -120 -116 -343 -68 -433 30 -57 54 -76
178 -142 90 -48 113 -65 127 -94 18 -35 17 -38 -7 -119 -18 -61 -25 -107 -25
-171 0 -116 21 -180 80 -240 l45 -47 -17 -63 c-65 -247 43 -512 255 -626 72
-38 73 -38 187 -38 109 0 119 2 184 33 49 23 89 53 140 105 83 83 128 167 153
281 23 105 38 99 45 -18 3 -43 -1 -54 -27 -83 -51 -59 -155 -207 -162 -232
-15 -60 69 -123 166 -125 53 -1 56 0 56 24 0 21 -4 25 -24 22 -34 -3 -115 25
-135 47 -15 17 -13 23 41 98 89 123 101 138 105 133 2 -3 18 -36 37 -73 45
-90 129 -175 217 -218 65 -32 74 -34 179 -34 109 0 113 1 189 39 128 63 233
184 276 320 15 48 115 191 184 264 69 74 126 106 171 98 59 -11 98 -63 119
-157 l6 -26 -44 15 c-37 13 -48 14 -75 2 -61 -25 -141 -159 -202 -339 -38
-111 -37 -124 11 -170 34 -33 40 -44 40 -81 0 -36 -5 -47 -36 -75 -35 -32 -35
-32 -8 -27 38 7 23 -14 -20 -28 -34 -11 -34 -11 -49 -108 -8 -53 -13 -99 -11
-101 8 -8 148 42 239 87 103 51 193 114 237 167 58 69 102 199 138 409 l21
119 127 132 c185 192 231 279 231 435 1 47 -6 116 -14 154 -21 100 -91 316
-114 349 -32 49 -107 93 -214 127 -217 68 -212 66 -241 125 -40 77 -55 145
-65 282 -11 142 -33 203 -100 276 -62 67 -114 85 -298 102 -187 18 -199 20
-328 52 -145 35 -245 87 -388 202 -127 103 -169 128 -252 154 -61 19 -188 26
-275 16z m-25 -1360 c23 -29 25 -37 19 -85 -13 -105 43 -197 158 -263 66 -38
110 -39 206 -6 121 42 252 26 260 -32 3 -18 -6 -27 -45 -45 -26 -12 -80 -54
-119 -93 -79 -78 -122 -154 -150 -265 -10 -38 -24 -70 -30 -70 -7 0 -14 26
-18 61 -26 229 -188 414 -392 450 l-62 11 0 47 c0 26 -3 70 -7 98 -10 73 9
129 60 180 52 53 82 56 120 12z m-90 -414 c63 -17 135 -58 173 -98 l23 -24
-58 19 c-68 23 -114 19 -190 -18 -56 -27 -103 -74 -103 -104 0 -47 63 -66 96
-29 52 58 148 69 214 25 48 -31 63 -32 88 -6 19 21 19 20 35 -22 76 -201 32
-424 -113 -568 -124 -124 -304 -159 -447 -88 -188 93 -286 351 -220 578 l13
45 44 -3 c25 -1 79 -5 121 -8 l76 -6 7 43 c9 56 36 116 92 207 51 81 53 82
149 57z m745 -98 c0 -26 -6 -36 -29 -50 -35 -20 -46 -48 -32 -76 16 -29 47
-35 81 -15 29 18 30 17 53 -4 43 -41 123 -64 247 -71 131 -8 153 -18 201 -87
24 -35 29 -53 29 -101 0 -128 -60 -275 -149 -364 -166 -165 -406 -162 -560 7
-85 93 -121 193 -121 340 0 177 76 334 203 419 65 44 77 44 77 2z"/>
<path d="M5587 9502 c-38 -42 -49 -134 -23 -196 41 -99 116 -40 116 91 0 96
-50 153 -93 105z"/>
<path d="M6407 9512 c-53 -58 -47 -225 9 -246 77 -30 118 179 49 247 -21 22
-38 21 -58 -1z"/>
<path d="M5814 8669 c-17 -5 -38 -17 -48 -28 -17 -19 -15 -19 86 -20 57 0 132
-7 168 -15 36 -7 67 -12 69 -10 10 9 -60 63 -95 73 -46 13 -136 13 -180 0z"/>
<path d="M6315 8090 c-189 -72 -353 -88 -510 -51 -44 11 -80 19 -81 18 -1 -1
-7 -72 -13 -157 -8 -105 -15 -156 -24 -159 -6 -2 -28 -20 -48 -40 -31 -31 -39
-51 -62 -146 -31 -125 -58 -173 -120 -209 -63 -38 -110 -50 -442 -117 -556
-112 -767 -164 -862 -213 -249 -126 -510 -645 -754 -1501 -82 -286 -179 -679
-179 -721 0 -8 34 -50 75 -93 l76 -79 -17 -113 -16 -112 23 -19 c165 -134 482
-272 775 -339 l101 -23 7 -81 c11 -151 -12 -1180 -40 -1745 -8 -168 -17 -463
-21 -656 l-6 -350 94 -36 c437 -167 942 -280 1444 -324 226 -20 737 -15 980
10 437 43 1172 157 1196 184 3 4 -20 497 -51 1097 -31 600 -63 1225 -69 1390
-7 165 -15 307 -17 316 -4 14 13 17 117 23 359 20 726 124 904 255 28 20 66
43 85 51 19 7 66 29 103 47 l69 34 -7 52 c-91 709 -212 1330 -346 1774 -122
404 -251 650 -394 749 -169 117 -409 228 -723 333 -157 53 -233 75 -437 130
l-40 11 -3 72 c-3 90 -26 222 -54 306 -37 116 -72 122 -413 66 -255 -41 -440
-52 -568 -34 -48 6 -87 16 -87 21 0 5 6 9 14 9 7 0 46 16 86 36 107 54 206
152 363 362 13 17 6 15 -108 -28z"/>
<path d="M1200 7164 c-300 -68 -546 -124 -548 -124 -1 0 -1 -239 0 -532 l3
-532 30 -8 c17 -5 86 -20 155 -34 169 -35 279 -34 565 4 127 17 276 34 333 37
98 7 102 9 102 31 0 12 4 25 8 28 9 5 981 -42 1020 -50 l22 -4 0 -454 0 -453
-31 -7 c-17 -3 -46 -6 -64 -6 -68 0 -68 -6 -5 -88 32 -42 75 -93 94 -111 l36
-35 0 1106 c0 1045 -1 1107 -17 1112 -84 24 -1106 246 -1129 245 -16 -1 -274
-57 -574 -125z m1513 -140 l177 -37 0 -459 c0 -360 -3 -458 -12 -458 -35 -1
-996 62 -1015 66 l-23 4 0 529 c0 290 2 530 5 533 3 2 159 -28 347 -68 189
-40 423 -90 521 -110z"/>
<path d="M2270 6787 l0 -115 28 -6 c26 -6 227 -36 237 -36 3 0 5 49 5 109 0
126 14 112 -130 136 -52 9 -105 19 -117 22 -23 5 -23 4 -23 -110z m153 68 l97
-17 0 -34 c0 -30 -3 -34 -22 -29 -13 2 -52 9 -88 15 -126 21 -120 18 -120 56
0 29 3 34 18 30 9 -2 61 -12 115 -21z"/>
<path d="M195 6073 c135 -121 401 -248 633 -302 96 -23 122 -19 122 15 0 19
-24 29 -115 49 -154 33 -401 141 -520 226 -41 29 -97 49 -140 48 -16 0 -13 -6
20 -36z"/>
<path d="M110 6065 c0 -33 102 -165 168 -218 63 -49 193 -133 269 -171 91 -45
328 -127 348 -120 8 4 15 17 15 29 0 21 -12 27 -112 60 -210 70 -414 188 -600
350 -49 42 -88 73 -88 70z"/>
<path d="M12266 5809 c-22 -5 -54 -20 -72 -34 -49 -37 -209 -122 -304 -162
-47 -19 -141 -49 -210 -67 -110 -28 -125 -34 -128 -54 -2 -14 3 -25 13 -29 23
-8 215 40 328 83 157 60 356 175 421 243 33 35 27 37 -48 20z"/>
<path d="M2295 5790 c4 -6 53 -10 116 -10 l109 0 0 -35 0 -35 -106 0 c-105 0
-106 0 -101 -22 3 -13 9 -44 12 -70 l7 -48 104 0 104 0 0 115 0 115 -126 0
c-81 0 -123 -4 -119 -10z"/>
<path d="M12331 5729 c-29 -28 -88 -76 -130 -108 -176 -134 -305 -203 -498
-266 -103 -34 -113 -39 -113 -61 0 -14 6 -27 13 -30 22 -8 244 69 347 121 200
100 355 226 415 336 15 28 25 52 23 54 -1 2 -27 -19 -57 -46z"/>
<path d="M650 4198 l0 -1373 565 -259 c585 -268 608 -276 622 -228 5 19 999
476 1037 478 11 0 27 1 34 2 18 3 16 268 -3 302 -14 25 -14 25 -15 -15 l-1
-40 -506 -209 c-278 -115 -514 -211 -524 -213 -19 -5 -19 11 -17 527 3 533 3
533 24 536 12 2 76 19 144 37 l123 34 -89 22 c-49 12 -113 28 -141 37 l-53 15
0 209 c0 180 2 210 15 210 22 0 22 145 0 154 -20 7 -20 66 0 66 12 0 15 15 15
74 0 70 7 86 36 86 2 0 4 -36 4 -79 0 -44 5 -83 10 -86 6 -4 10 25 10 79 0 95
-10 84 93 102 20 3 37 10 37 15 0 5 -23 51 -52 101 -28 51 -63 114 -77 140
-24 44 -29 48 -63 48 l-38 0 0 70 c0 59 -5 81 -30 130 -35 69 -18 63 -327 134
-359 84 -596 157 -745 232 -37 19 -72 34 -78 34 -7 0 -10 -442 -10 -1372z"/>
<path d="M2068 4643 c-20 -5 -22 -46 -9 -138 6 -41 9 -45 14 -25 4 17 17 184
12 169 0 -1 -8 -3 -17 -6z"/>
<path d="M1991 4568 c1 -101 16 -116 20 -20 3 61 1 82 -8 82 -9 0 -13 -19 -12
-62z"/>
<path d="M1893 4555 c0 -38 2 -53 4 -32 2 20 2 52 0 70 -2 17 -4 1 -4 -38z"/>
<path d="M2124 4567 c3 -10 6 -41 6 -68 0 -27 5 -49 10 -49 16 0 11 82 -6 110
-8 14 -13 17 -10 7z"/>
<path d="M2162 4475 c0 -16 2 -22 5 -12 2 9 2 23 0 30 -3 6 -5 -1 -5 -18z"/>
<path d="M1921 4338 c1 -52 3 -66 9 -48 12 36 12 120 0 120 -6 0 -10 -30 -9
-72z"/>
<path d="M2003 4345 c0 -33 2 -45 4 -27 2 18 2 45 0 60 -2 15 -4 0 -4 -33z"/>
<path d="M2063 4315 c0 -44 2 -61 4 -37 2 23 2 59 0 80 -2 20 -4 1 -4 -43z"/>
<path d="M2137 4312 c6 -94 11 -100 12 -15 1 39 -3 74 -8 77 -5 3 -7 -24 -4
-62z"/>
<path d="M2163 4330 c0 -25 2 -35 4 -22 2 12 2 32 0 45 -2 12 -4 2 -4 -23z"/>
<path d="M2192 4295 l1 -80 7 70 c3 39 3 74 -2 80 -4 5 -7 -27 -6 -70z"/>
<path d="M2518 3633 c-3 -36 -4 -37 -85 -64 -44 -15 -95 -30 -112 -34 -29 -6
-31 -5 -31 23 0 29 4 31 73 52 39 11 83 25 97 30 47 16 -51 4 -122 -16 l-68
-18 0 -117 0 -118 135 46 135 45 0 104 c0 58 -4 104 -9 104 -6 0 -11 -16 -13
-37z"/>
</g>
</svg>
